<?xml version="1.0" encoding="UTF-8"?>
<svg id="Ebene_1" data-name="Ebene 1" xmlns="http://www.w3.org/2000/svg" viewBox="0 0 91.76 105.46">
  <defs>
    <style>
      .cls-1 {
        fill: #fff;
      }

      .cls-2 {
        stroke: #fff;
        stroke-miterlimit: 10;
      }

      .cls-2, .cls-3 {
        fill: #1d1d1b;
      }
    </style>
  </defs>
  <path class="cls-2" d="M.93,79.18c-.14-17.38-.29-34.77-.43-52.15C15.49,18.21,30.47,9.39,45.45,.58l45.38,25.7,.43,52.15-44.95,26.45L.93,79.18Z"/>
  <polygon class="cls-2" points="67.06 16.62 88.25 52.73 67.06 88.84 24.7 88.84 3.52 52.73 24.7 16.62 67.06 16.62"/>
  <path class="cls-3" d="M34.03,29.67c-4.55-2.11-9.72-1.2-13.81,1.58s-7.96,8.14-4.82,13.04c1.38,2.16,3.76,3.09,6.13,3.71s4.81,1.35,7.11,2.34c.89,.38,1.97,.77,2.68,1.45s.82,1.7,.87,2.63c.05,1.02,.21,2.3-.19,3.27-.33,.8-1.09,1.21-1.86,1.53-2.66,1.13-5.74,1.56-8.62,1.56-1.74,0-3.99-.13-4.82-1.83-.6-1.21-2.31-1.54-3.42-.9-1.23,.72-1.5,2.21-.9,3.42,2.33,4.72,8.71,4.61,13.14,4.01,2.62-.36,5.38-.96,7.73-2.24,2.53-1.37,3.76-3.72,3.95-6.54s-.06-5.76-1.84-7.91c-1.64-1.99-4.33-2.91-6.66-3.81s-4.85-1.41-7.25-2.23c-1.79-.61-2.62-1.95-1.84-3.79,.9-2.13,3.29-3.76,5.32-4.65s4.51-1.29,6.58-.34c1.22,.57,2.69,.35,3.42-.9,.63-1.08,.33-2.85-.9-3.42h0Z"/>
  <path class="cls-3" d="M30.58,29.7c-4.17-.24-8.37,.97-10.91,4.46s-1.69,7.85,1,10.92,6.59,4.08,10.09,5.86c2.69,1.36,5.78,3.99,3.84,7.18-1.07,1.76-2.7,3.2-4.32,4.44-.85,.65-1.74,1.26-2.62,1.87-.38,.26-.99,.51-1.28,.85-.37,.43,.11-.12,.43,.47-1.53-2.83-5.85-.31-4.32,2.52,1.18,2.18,3.83,2.56,5.93,1.57,1.84-.86,3.55-2.3,5.15-3.54,3.18-2.47,6.86-6.02,6.72-10.38s-3.68-7.69-7.38-9.48c-3.15-1.53-8.09-2.6-9.55-6.24-.64-1.6,.08-3.19,1.37-4.21,1.63-1.29,3.87-1.4,5.85-1.28,3.21,.18,3.2-4.82,0-5h0Z"/>
  <path class="cls-1" d="M38.74,29.78c-4.53-2.05-11.12-1.94-13.16,3.43-1.66,4.36-1.51,10.11,1.12,14.05s7.08,5.97,10.46,9.25c1.37,1.33,2.63,3.05,2.73,5.02s-1.07,3.5-2.38,4.76-3.37,3.24-5.21,1.9c-1.7-1.24-3.76-3.29-4.38-5.35-.93-3.07-5.75-1.76-4.82,1.33,.73,2.41,2.28,4.3,4.04,6.04s3.8,3.55,6.47,3.51,4.94-1.69,6.86-3.37c1.76-1.54,3.23-3.47,3.97-5.7,1.67-5.02-1.45-9.92-5.23-12.98-3.4-2.76-8.3-5.07-9.41-9.69-.53-2.18-.39-5.2,.54-7.27,.85-1.9,4.42-1.28,5.88-.62,1.23,.56,2.69,.35,3.42-.9,.63-1.07,.34-2.86-.9-3.42h0Z"/>
  <path class="cls-1" d="M49.79,33.81c-.09,2.97,.96,5.78,1.47,8.67s.6,5.83,.58,8.75c-.05,6.03-.45,12.06-.83,18.08-.2,3.21,4.8,3.2,5,0,.38-6.01,.78-12.05,.83-18.08,.02-2.99-.13-5.96-.57-8.92s-1.57-5.63-1.48-8.51c.1-3.22-4.9-3.22-5,0h0Z"/>
  <path class="cls-1" d="M56.81,40.55c1.97-1.23,4.28-2.05,6.47-2.22,1.11-.09,2.54-.07,3.43,.07,.6,.09,1.2,.22,1.78,.39,.29,.08,.58,.17,.87,.27,.14,.05,.29,.1,.43,.15,.05,.02,.39,.16,.17,.06,.25,.11,.5,.24,.74,.38,.07,.04,.58,.37,.4,.23,.21,.16,.42,.36,.58,.56-.2-.24,.23,.45,.17,.32,.06,.14,.06,.57-.05,.85-.13,.32-.37,.85-.64,1.21-1.22,1.62-3.06,2.56-5.02,3.05-1.17,.29-2.02,.36-3.4,.25-.76-.06-2.28-.47-3.05-.84-1.21-.59-2.7-.33-3.42,.9-.64,1.1-.32,2.83,.9,3.42,5.69,2.77,13.37,1.78,17.55-3.25,2.39-2.87,3.16-7.06,.12-9.82-2.53-2.29-6.28-3.12-9.6-3.23-3.83-.13-7.72,.92-10.97,2.95-1.14,.72-1.59,2.23-.9,3.42s2.27,1.62,3.42,.9h0Z"/>
</svg>